{"title":"Happy Phirr Bhag Jayegi 2018 Hindi 720p PRE-DVDRip x264 AAC { Ta","magnet":"magnet:?xt=urn:btih:6450899f1bc0fd046a86bfc264f337c50ad76bc7&dn=Happy+Phirr+Bhag+Jayegi+2018+Hindi+720p+PRE-DVDRip+x264+AAC+%7B+Ta&tr=udp%3A%2F%2Ftracker.leechers-paradise.org%3A6969&tr=udp%3A%2F%2Fzer0day.ch%3A1337&tr=udp%3A%2F%2Fopen.demonii.com%3A1337&tr=udp%3A%2F%2Ftracker.coppersurfer.tk%3A6969&tr=udp%3A%2F%2Fexodus.desync.com%3A6969","uploader":"SkTaRa","categoryP":"video","categoryS":"movies","size":"1196591252","seeders":"90","leechers":"82","description":"===================================================================\r\nGeneral\r\nComplete name               : Happy Phirr Bhag Jayegi 2018 Hindi 720p PRE-DVDRip x264 AAC { TaRa }.mkv\r\nFormat                      : Matroska\r\nFormat version              : Version 4 / Version 2\r\nFile size                   : 1.11 GiB\r\nDuration                    : 2h 10mn\r\nOverall bit rate            : 1 221 Kbps\r\n===================================================================\r\nVideo\r\nID                          : 1\r\nFormat                      : AVC\r\nFormat/Info                 : Advanced Video Codec\r\nFormat profile              : High@L3.1\r\nFormat settings, CABAC      : Yes\r\nFormat settings, ReFrames   : 5 frames\r\nCodec ID                    : V_MPEG4/ISO/AVC\r\nDuration                    : 2h 10mn\r\nBit rate                    : 1 088 Kbps\r\nWidth                       : 1 280 pixels\r\nHeight                      : 544 pixels\r\nDisplay aspect ratio        : 2.25:1\r\nOriginal display aspect rat : 2.25:1\r\nFrame rate mode             : Constant\r\nFrame rate                  : 25.000 fps\r\nColor space                 : YUV\r\nChroma subsampling          : 4:2:0\r\nBit depth                   : 8 bits\r\nScan type                   : Progressive\r\nBits/(Pixel*Frame)          : 0.063\r\nStream size                 : 1 020 MiB (89%)\r\nTitle                       : .....::::: TaRa :::::.....\r\nLanguage                    : Hindi\r\nDefault                     : Yes\r\nForced                      : No\r\n===================================================================\r\nAudio\r\nID                          : 2\r\nFormat                      : AAC\r\nFormat/Info                 : Advanced Audio Codec\r\nFormat profile              : HE-AAC / LC\r\nCodec ID                    : A_AAC\r\nDuration                    : 2h 10mn\r\nBit rate                    : 128 Kbps\r\nChannel(s)                  : 2 channels\r\nChannel positions           : Front: L R\r\nSampling rate               : 44.1 KHz / 22.05 KHz\r\nFrame rate                  : 21.533 fps (1024 spf)\r\nCompression mode            : Lossy\r\nDelay relative to video     : 33ms\r\nStream size                 : 120 MiB (10%)\r\nTitle                       : .....::::: TaRa :::::.....\r\nLanguage                    : Hindi\r\nDefault                     : Yes\r\nForced                      : No\r\n=================================================================== <a href=\"\nhttps://extraimage.net/image/sv44\" rel=\"nofollow\" target=\"_NEW\">\nhttps://extraimage.net/image/sv44</a> <a href=\"\nhttps://extraimage.net/image/sv4e\" rel=\"nofollow\" target=\"_NEW\">\nhttps://extraimage.net/image/sv4e</a> <a href=\"\nhttps://extraimage.net/image/sv4B\" rel=\"nofollow\" target=\"_NEW\">\nhttps://extraimage.net/image/sv4B</a> <a href=\"\nhttps://extraimage.net/image/sv4C\" rel=\"nofollow\" target=\"_NEW\">\nhttps://extraimage.net/image/sv4C</a> <a href=\"\nhttps://extraimage.net/image/sv4Y\" rel=\"nofollow\" target=\"_NEW\">\nhttps://extraimage.net/image/sv4Y</a> <a href=\"\nhttps://extraimage.net/image/sv4p\" rel=\"nofollow\" target=\"_NEW\">\nhttps://extraimage.net/image/sv4p</a> <a href=\"\nhttps://extraimage.net/image/sv4r\" rel=\"nofollow\" target=\"_NEW\">\nhttps://extraimage.net/image/sv4r</a> <a href=\"\nhttps://extraimage.net/image/sv4G\" rel=\"nofollow\" target=\"_NEW\">\nhttps://extraimage.net/image/sv4G</a> <a href=\"\nhttps://extraimage.net/image/sv4P\" rel=\"nofollow\" target=\"_NEW\">\nhttps://extraimage.net/image/sv4P</a> <a href=\"\nhttps://extraimage.net/image/sv4g\" rel=\"nofollow\" target=\"_NEW\">\nhttps://extraimage.net/image/sv4g</a> <a href=\"\nhttps://extraimage.net/image/sv4X\" rel=\"nofollow\" target=\"_NEW\">\nhttps://extraimage.net/image/sv4X</a> <a href=\"\nhttps://extraimage.net/image/sv4D\" rel=\"nofollow\" target=\"_NEW\">\nhttps://extraimage.net/image/sv4D</a> <a href=\"\nhttps://extraimage.net/image/sv45\" rel=\"nofollow\" target=\"_NEW\">\nhttps://extraimage.net/image/sv45</a> <a href=\"\nhttps://extraimage.net/image/sv4F\" rel=\"nofollow\" target=\"_NEW\">\nhttps://extraimage.net/image/sv4F</a> <a href=\"\nhttps://extraimage.net/image/sv4k\" rel=\"nofollow\" target=\"_NEW\">\nhttps://extraimage.net/image/sv4k</a> <a href=\"\nhttps://extraimage.net/image/sv4H\" rel=\"nofollow\" target=\"_NEW\">\nhttps://extraimage.net/image/sv4H</a>","last_updated":"2018-08-25T12:10:01.610Z","parsed":{"xt":"urn:btih:6450899f1bc0fd046a86bfc264f337c50ad76bc7","dn":"Happy Phirr Bhag Jayegi 2018 Hindi 720p PRE-DVDRip x264 AAC { Ta","tr":["udp://exodus.desync.com:6969","udp://open.demonii.com:1337","udp://tracker.coppersurfer.tk:6969","udp://tracker.leechers-paradise.org:6969","udp://zer0day.ch:1337"],"infoHash":"6450899f1bc0fd046a86bfc264f337c50ad76bc7","infoHashBuffer":{"type":"Buffer","data":[100,80,137,159,27,192,253,4,106,134,191,194,100,243,55,197,10,215,107,199]},"name":"Happy Phirr Bhag Jayegi 2018 Hindi 720p PRE-DVDRip x264 AAC { Ta","announce":["udp://exodus.desync.com:6969","udp://open.demonii.com:1337","udp://tracker.coppersurfer.tk:6969","udp://tracker.leechers-paradise.org:6969","udp://zer0day.ch:1337"],"urlList":[]}}